<svg width="90" height="90" viewBox="0 0 90 90" fill="none" xmlns="http://www.w3.org/2000/svg">
<path d="M76.6842 76.6855H63.3491V55.8016C63.3491 50.8217 63.2602 44.411 56.4135 44.411C49.468 44.411 48.4052 49.837 48.4052 55.4392V76.6841H35.0705V33.7386H47.8719V39.6076H48.0512C49.3323 37.417 51.1836 35.6149 53.4079 34.3933C55.6322 33.1716 58.1462 32.5761 60.6822 32.6702C74.198 32.6702 76.6898 41.5605 76.6898 53.1262L76.6842 76.6855ZM20.0236 27.8686C15.7496 27.8693 12.2843 24.405 12.2836 20.131C12.2829 15.8571 15.7468 12.3917 20.0208 12.391C24.2947 12.39 27.7601 15.8543 27.7608 20.1282C27.7612 22.1807 26.9462 24.1492 25.4952 25.6008C24.0442 27.0524 22.076 27.8681 20.0236 27.8686ZM26.6913 76.6858H13.3421V33.7386H26.691V76.6855L26.6913 76.6858ZM83.3323 0.00655027H6.64137C3.01676 -0.034231 0.0442969 2.86932 0 6.49393V83.5048C0.0428906 87.1311 3.015 90.0375 6.64102 89.9995H83.3323C86.966 90.0445 89.9497 87.1382 90 83.5048V6.48796C89.9483 2.85632 86.9643 -0.0468872 83.3323 0.000573712" fill="#0A66C2"/>
</svg>
