<svg width="90" height="90" viewBox="0 0 90 90" fill="none" xmlns="http://www.w3.org/2000/svg">
<path d="M89.1247 36.1868H85.5V36H45V54H70.4318C66.7215 64.4782 56.7518 72 45 72C30.0893 72 18 59.9108 18 45C18 30.0893 30.0893 18 45 18C51.8828 18 58.1445 20.5965 62.9123 24.8377L75.6405 12.1095C67.6035 4.61925 56.853 0 45 0C20.1488 0 0 20.1488 0 45C0 69.8512 20.1488 90 45 90C69.8512 90 90 69.8512 90 45C90 41.9827 89.6895 39.0375 89.1247 36.1868Z" fill="#FFC107"/>
<path d="M5.18857 24.0548L19.9733 34.8975C23.9738 24.993 33.6623 18 45.0001 18C51.8828 18 58.1446 20.5965 62.9123 24.8377L75.6406 12.1095C67.6036 4.61925 56.8531 0 45.0001 0C27.7156 0 12.7261 9.75825 5.18857 24.0548Z" fill="#FF3D00"/>
<path d="M45 90C56.6235 90 67.185 85.5518 75.1703 78.318L61.2428 66.5325C56.573 70.0839 50.8668 72.0047 45 72C33.2955 72 23.3573 64.5368 19.6133 54.1215L4.93877 65.4278C12.3863 80.001 27.5108 90 45 90Z" fill="#4CAF50"/>
<path d="M89.1247 36.1868H85.5V36H45V54H70.4318C68.657 58.9869 65.4601 63.3446 61.236 66.5347L61.2428 66.5303L75.1702 78.3158C74.1848 79.2112 90 67.5 90 45C90 41.9827 89.6895 39.0375 89.1247 36.1868Z" fill="#1976D2"/>
</svg>
