<svg width="90" height="90" viewBox="0 0 90 90" fill="none" xmlns="http://www.w3.org/2000/svg">
<path d="M16.4335 0C7.33005 0 0 7.33003 0 16.4334V73.5665C0 82.6699 7.33005 89.9999 16.4335 89.9999H47.3991V54.8156H38.0954V42.1481H47.3991V31.3256C47.3991 22.8229 52.8962 15.0159 65.5594 15.0159C70.6865 15.0159 74.4779 15.5081 74.4779 15.5081L74.1797 27.3375C74.1797 27.3375 70.313 27.301 66.0938 27.301C61.5272 27.301 60.795 29.405 60.795 32.8979V42.1482H74.5425L73.9435 54.8157H60.795V90H73.5665C82.67 90 90 82.67 90 73.5666V16.4335C90 7.33012 82.67 8.99998e-05 73.5665 8.99998e-05H16.4334L16.4335 0Z" fill="#0A66C2"/>
</svg>
